{"title":"18+ Little Dead Rotting Hood 2016 UNCENSORED Movies DVDRip XviD","uid":13159689,"size":738273697,"categoryP":"video","categoryS":"movies","magnet":"?xt=urn:btih:ca427844f1da0de4b60f7b3b9dd26e497d25c3b0&amp;dn=18%2B+Little+Dead+Rotting+Hood+2016+UNCENSORED+Movies+DVDRip+XviD+&amp;tr=udp%3A%2F%2Ftracker.leechers-paradise.org%3A6969&amp;tr=udp%3A%2F%2Fzer0day.ch%3A1337&amp;tr=udp%3A%2F%2Fopen.demonii.com%3A1337&amp;tr=udp%3A%2F%2Ftracker.coppersurfer.tk%3A6969&amp;tr=udp%3A%2F%2Fexodus.desync.com%3A6969","seeders":1,"leechers":0,"uploader":"basicssom","files":2,"time":1452146972,"description":"----------------------------------------------------------------\r\n18+ Little Dead Rotting Hood 2016 UNCENSORED Movies DVDRip XviD New Source with Sample ~ ☻rDX☻\r\n\r\nSCREEN SHOTS &amp; POSTER:\r\n  \nhttp://doctorhosts.com/2016/1/ldrh/11.html  \nhttp://doctorhosts.com/2016/1/ldrh/1.html  \nhttp://doctorhosts.com/2016/1/ldrh/2.html  \nhttp://doctorhosts.com/2016/1/ldrh/3.html  \nhttp://doctorhosts.com/2016/1/ldrh/4.html  \nhttp://doctorhosts.com/2016/1/ldrh/5.html  \nhttp://doctorhosts.com/2016/1/ldrh/6.html  \nhttp://doctorhosts.com/2016/1/ldrh/7.html  \nhttp://doctorhosts.com/2016/1/ldrh/8.html  \nhttp://doctorhosts.com/2016/1/ldrh/9.html  \nhttp://doctorhosts.com/2016/1/ldrh/10.html\r\n\r\nFormat                                   : Matroska\r\nFormat version                           : Version 4 / Version 2\r\nFile size                                : 694 MiB\r\nDuration                                 : 1h 28mn\r\nOverall bit rate                         : 1 097 Kbps\r\nMovie name                               : Little Dead Rotting Hood 2016 English Movies DVDRip XviD AAC New Source ~ rDX ~\r\n\r\nVideo\r\nID                                       : 1\r\nFormat                                   : MPEG-4 Visual\r\nFormat profile                           : Advanced   \r\nFormat settings, BVOP                    : Yes\r\nFormat settings, QPel                    : No\r\nFormat settings, GMC                     : No warppoints\r\nFormat settings, Matrix                  : Default (H.263)\r\nCodec ID                                 : V_MS/VFW/FOURCC / XVID\r\nCodec ID/Hint                            : XviD\r\nDuration                                 : 1h 28mn\r\nBit rate                                 : 947 Kbps\r\nWidth                                    : 640 pixels\r\nHeight                                   : 344 pixels\r\nDisplay aspect ratio                     : 1.85:1\r\nFrame rate mode                          : Constant\r\nFrame rate                               : 23.976 fps\r\nColor space                              : YUV\r\nChroma subsampling                       : 4:2:0\r\nBit depth                                : 8 bits\r\nScan type                                : Progressive\r\nCompression mode                         : Lossy\r\nBits/(Pixel*Frame)                       : 0.179\r\nStream size                              : 599 MiB (86%)\r\nTitle                                    : ~ rDX ~\r\nWriting library                          : XviD 67\r\nDefault                                  : Yes\r\nForced                                   : No\r\n\r\nAudio\r\nID                                       : 2\r\nFormat                                   : MPEG Audio\r\nFormat version                           : Version 1\r\nFormat profile                           : Layer 3\r\nMode                                     : Joint stereo\r\nMode extension                           : MS Stereo\r\nCodec ID                                 : A_MPEG/L3\r\nCodec ID/Hint                            : MP3\r\nDuration                                 : 1h 28mn\r\nBit rate mode                            : Constant\r\nBit rate                                 : 128 Kbps\r\nChannel(s)                               : 2 channels\r\nSampling rate                            : 48.0 KHz\r\nCompression mode                         : Lossy\r\nStream size                              : 81.0 MiB (12%)\r\nTitle                                    : ~ rDX ~\r\nWriting library                          : LAME3.99r\r\nEncoding settings                        : -m j -V 4 -q 3 -lowpass 17 -b 128\r\nDefault                                  : Yes\r\nForced                                   : No\r\n\r\nIMDB                                      \nhttp://www.imdb.com/title/tt5113086/","torrent":{"xt":"urn:btih:ca427844f1da0de4b60f7b3b9dd26e497d25c3b0","amp;dn":"18%2B+Little+Dead+Rotting+Hood+2016+UNCENSORED+Movies+DVDRip+XviD+","amp;tr":["udp%3A%2F%2Ftracker.leechers-paradise.org%3A6969","udp%3A%2F%2Fzer0day.ch%3A1337","udp%3A%2F%2Fopen.demonii.com%3A1337","udp%3A%2F%2Ftracker.coppersurfer.tk%3A6969","udp%3A%2F%2Fexodus.desync.com%3A6969"],"infoHash":"ca427844f1da0de4b60f7b3b9dd26e497d25c3b0","infoHashBuffer":{"type":"Buffer","data":[202,66,120,68,241,218,13,228,182,15,123,59,157,210,110,73,125,37,195,176]},"announce":[],"urlList":[]}}